# xmcd
#
# Track frame offsets:
#	150
#	15971
#	32385
#	46274
#	62433
#	80096
#	96942
#	115348
#	133896
#	149717
#	166131
#	180020
#	196179
#	213842
#	230688
#	249094
#	279042
#
# Disc length: 3729 seconds
#
# Revision: 1
# Processed by: cddbd v1.5.2PL0 Copyright (c) Steve Scherf et al.
# Submitted via: audiograbber 1.83.01
#
DISCID=d50e8f11
DTITLE=Sound Choice - SC3464
DYEAR=1900
DGENRE=
TTITLE0=Martina McBride - Till I can Make it on my own
TTITLE1=Julie Roberts - Men and Mascara
TTITLE2=Gretchin Wilson - California Girls
TTITLE3=Trace Atkins - Swing
TTITLE4=Rio Grand - Kill me now
TTITLE5=The lost Trailers - Call me Crazy
TTITLE6=Josh Turner - Would you go with me
TTITLE7=Miranda Lambert - New Strings
TTITLE8=Vocals - Vocals
TTITLE9=Vocals - Vocals
TTITLE10=Vocals - Vocals
TTITLE11=Vocals - Vocals
TTITLE12=Vocals - Vocals
TTITLE13=Vocals - Vocals
TTITLE14=Vocals - Vocals
TTITLE15=Vocals - Vocals
TTITLE16=Data - Data Track
EXTD=
EXTT0=
EXTT1=
EXTT2=
EXTT3=
EXTT4=
EXTT5=
EXTT6=
EXTT7=
EXTT8=
EXTT9=
EXTT10=
EXTT11=
EXTT12=
EXTT13=
EXTT14=
EXTT15=
EXTT16=
PLAYORDER=
